# Blender v3.2.0 OBJ File: ''
# www.blender.org
mtllib untitled.mtl
o Cube
v 0.928573 0.827559 -1.000000
v 0.949494 0.949493 -0.928573
v 1.000000 0.928573 -0.928573
v 0.933372 0.866480 -0.994563
v 0.939034 0.903319 -0.979080
v 0.952700 0.858474 -0.994563
v 0.957923 0.898417 -0.988351
v 0.961342 0.927539 -0.975577
v 0.974233 0.937791 -0.969812
v 0.972028 0.971126 -0.928573
v 0.989540 0.974747 -0.928573
v 0.944695 0.932470 -0.955907
v 0.967335 0.953273 -0.956217
v 0.982210 0.957050 -0.954710
v 0.991356 0.913142 -0.955907
v 0.974747 0.888527 -0.979080
v 0.999362 0.959804 -0.928573
v 0.990057 0.943862 -0.956217
v 0.976098 0.921427 -0.975577
v 1.000000 -0.928573 -0.928573
v 0.928573 -0.999825 -0.928574
v 0.928573 -0.928397 -1.000000
v 0.994563 -0.955894 -0.928573
v 0.979080 -0.979028 -0.928573
v 0.994563 -0.928560 -0.955907
v 0.988351 -0.956188 -0.956217
v 0.975577 -0.975517 -0.954710
v 0.969811 -0.969737 -0.969812
v 0.928573 -0.994387 -0.955907
v 0.928573 -0.978904 -0.979080
v 0.955907 -0.994455 -0.928573
v 0.956217 -0.988244 -0.956217
v 0.954710 -0.975465 -0.975577
v 0.955907 -0.928465 -0.994563
v 0.979079 -0.928522 -0.979080
v 0.928573 -0.955731 -0.994563
v 0.956217 -0.956109 -0.988351
v 0.975577 -0.954649 -0.975577
v 1.000000 0.928573 0.928573
v 0.949313 0.949675 0.928573
v 0.928573 0.828432 1.000000
v 0.996142 0.952076 0.928573
v 0.985154 0.964340 0.928573
v 0.994563 0.905600 0.955907
v 0.989749 0.945760 0.961874
v 0.983081 0.959360 0.963991
v 0.976503 0.943560 0.974127
v 0.936841 0.929631 0.955907
v 0.928520 0.899551 0.979080
v 0.968710 0.963497 0.928573
v 0.968732 0.954510 0.961874
v 0.966009 0.937517 0.978802
v 0.955907 0.851404 0.994563
v 0.979079 0.878502 0.979080
v 0.925617 0.864015 0.994563
v 0.961806 0.908258 0.988008
v 0.979608 0.931855 0.978802
v 0.928573 -0.927988 1.000000
v 0.928576 -0.999417 0.928573
v 1.000000 -0.928573 0.928573
v 0.928574 -0.955323 0.994563
v 0.928574 -0.978496 0.979080
v 0.955907 -0.928212 0.994563
v 0.956217 -0.955859 0.988351
v 0.954710 -0.975207 0.975577
v 0.969812 -0.969565 0.969812
v 0.955909 -0.994204 0.928573
v 0.979081 -0.978909 0.928573
v 0.928575 -0.993980 0.955907
v 0.956218 -0.987994 0.956217
v 0.975577 -0.975378 0.954710
v 0.994563 -0.928528 0.955907
v 0.979079 -0.928401 0.979080
v 0.994563 -0.955863 0.928573
v 0.988351 -0.956122 0.956217
v 0.975577 -0.954510 0.975577
v -0.823067 -0.924095 -1.000010
v -0.923760 -0.994868 -0.928585
v -0.944681 -0.944186 -0.928585
v -0.853892 -0.948134 -0.994573
v -0.883852 -0.970026 -0.979090
v -0.861898 -0.928739 -0.994573
v -0.893742 -0.953195 -0.988362
v -0.916680 -0.971247 -0.975588
v -0.933008 -0.969286 -0.969823
v -0.954926 -0.994125 -0.928585
v -0.969846 -0.984232 -0.928585
v -0.908387 -0.986436 -0.955918
v -0.939043 -0.985035 -0.956229
v -0.952209 -0.977117 -0.954721
v -0.927715 -0.939612 -0.955918
v -0.898645 -0.934188 -0.979090
v -0.966248 -0.966696 -0.928585
v -0.948455 -0.962233 -0.956228
v -0.922792 -0.956441 -0.975588
v -0.826084 -0.913675 1.000008
v -0.947201 -0.933784 0.928583
v -0.926464 -0.984692 0.928583
v -0.864833 -0.918137 0.994571
v -0.901457 -0.923525 0.979088
v -0.856897 -0.937618 0.994571
v -0.896661 -0.942498 0.988360
v -0.925607 -0.945699 0.975586
v -0.935815 -0.958564 0.969820
v -0.968795 -0.956196 0.928583
v -0.972436 -0.973741 0.928583
v -0.930381 -0.929019 0.955916
v -0.951150 -0.951545 0.956226
v -0.954933 -0.966447 0.954719
v -0.911222 -0.976052 0.955916
v -0.886793 -0.959522 0.979088
v -0.957572 -0.983747 0.928583
v -0.941821 -0.974447 0.956227
v -0.919549 -0.960572 0.975586
vt 0.133948 0.508928
vt 0.366052 0.508928
vt 0.366061 0.741072
vt 0.133939 0.741072
vt 0.383929 0.758937
vt 0.603481 0.758937
vt 0.383929 0.978490
vt 0.631332 0.508928
vt 0.868668 0.508928
vt 0.868661 0.741072
vt 0.631339 0.741072
vt 0.383928 0.508928
vt 0.616072 0.508928
vt 0.616072 0.741072
vt 0.383928 0.741072
vt 0.612373 0.491050
vt 0.616638 0.491651
vt 0.617562 0.494727
vt 0.613222 0.494073
vt 0.625000 0.490123
vt 0.625000 0.493038
vt 0.615178 0.500000
vt 0.611066 0.500000
vt 0.622408 0.499420
vt 0.628563 0.508928
vt 0.629974 0.505470
vt 0.632697 0.505509
vt 0.625000 0.508928
vt 0.625000 0.505661
vt 0.631962 0.500000
vt 0.634877 0.500000
vt 0.614143 0.505512
vt 0.617983 0.505473
vt 0.619976 0.508928
vt 0.380513 0.508928
vt 0.380476 0.505473
vt 0.383930 0.505512
vt 0.375000 0.508928
vt 0.375000 0.505661
vt 0.380669 0.500000
vt 0.383935 0.500000
vt 0.374997 0.501258
vt 0.366048 0.505514
vt 0.369507 0.505477
vt 0.369473 0.508930
vt 0.366043 0.500000
vt 0.369317 0.500000
vt 0.392879 0.491050
vt 0.389454 0.494475
vt 0.385959 0.494514
vt 0.389462 0.491050
vt 0.380683 0.494317
vt 0.383957 0.491043
vt 0.619010 0.741072
vt 0.618220 0.745234
vt 0.613200 0.744488
vt 0.625000 0.741072
vt 0.625000 0.745499
vt 0.616482 0.750000
vt 0.609813 0.750000
vt 0.624319 0.748922
vt 0.633381 0.744487
vt 0.629816 0.745231
vt 0.629254 0.741070
vt 0.635788 0.750000
vt 0.631051 0.750000
vt 0.606381 0.755517
vt 0.613493 0.754779
vt 0.607926 0.759307
vt 0.618949 0.756051
vt 0.614212 0.760788
vt 0.380512 0.758937
vt 0.380473 0.755478
vt 0.383929 0.755517
vt 0.375000 0.758959
vt 0.375000 0.755692
vt 0.380686 0.750000
vt 0.383950 0.750000
vt 0.376268 0.750012
vt 0.369478 0.741074
vt 0.369513 0.744531
vt 0.366057 0.744490
vt 0.375000 0.741072
vt 0.375000 0.744339
vt 0.369308 0.750000
vt 0.366041 0.750000
vt 0.383934 0.744488
vt 0.380485 0.744527
vt 0.380517 0.741072
vt 0.612373 0.271555
vt 0.613222 0.267692
vt 0.617570 0.262699
vt 0.616647 0.266689
vt 0.611070 0.263930
vt 0.615183 0.259817
vt 0.625000 0.256951
vt 0.625000 0.259859
vt 0.617229 0.257771
vt 0.130043 0.508928
vt 0.132022 0.505476
vt 0.135864 0.505515
vt 0.125000 0.508931
vt 0.125000 0.505666
vt 0.134817 0.500000
vt 0.138930 0.500000
vt 0.125000 0.503780
vt 0.867311 0.505509
vt 0.870028 0.505470
vt 0.871431 0.508928
vt 0.865141 0.500000
vt 0.868049 0.500000
vt 0.875000 0.505666
vt 0.875000 0.508931
vt 0.869493 0.500000
vt 0.383331 0.983338
vt 0.380254 0.987321
vt 0.380904 0.982345
vt 0.384848 0.990152
vt 0.381939 0.993061
vt 0.375000 0.990209
vt 0.375000 0.986112
vt 0.380491 0.994509
vt 0.871423 0.741072
vt 0.870028 0.744524
vt 0.867311 0.744486
vt 0.875000 0.741075
vt 0.875000 0.744344
vt 0.868061 0.750000
vt 0.865152 0.750000
vt 0.875000 0.746233
vt 0.135845 0.744492
vt 0.132016 0.744531
vt 0.130046 0.741072
vt 0.138888 0.750000
vt 0.134791 0.750000
vt 0.125000 0.744343
vt 0.125000 0.741075
vt 0.132754 0.750000
vn -0.0192 -0.9890 -0.1468
vn 0.0958 -0.9891 -0.1122
vn 0.0932 -0.9890 0.1150
vn -0.0220 -0.9877 0.1549
vn 0.0988 -0.1025 0.9898
vn 0.0262 0.0731 0.9970
vn -0.0713 -0.0289 0.9970
vn -0.6757 0.7194 -0.1611
vn -0.7075 0.6875 -0.1638
vn -0.7084 0.6903 0.1471
vn -0.6565 0.7446 0.1210
vn 0.9885 -0.0997 -0.1137
vn 0.9881 0.0302 -0.1509
vn 0.9916 0.0598 0.1143
vn 0.9900 -0.0998 0.0997
vn 0.0256 0.0744 -0.9969
vn -0.1831 0.2769 -0.9433
vn 0.1097 0.2648 -0.9580
vn 0.3196 0.0668 -0.9452
vn -0.4554 0.4997 -0.7368
vn -0.2146 0.5198 -0.8269
vn 0.5193 0.2158 -0.8269
vn 0.6789 0.0321 -0.7336
vn 0.2080 0.5021 -0.8394
vn -0.3936 0.8907 -0.2274
vn -0.3827 0.7205 -0.5783
vn -0.6166 0.6390 -0.4598
vn 0.3688 0.8890 -0.2716
vn 0.2814 0.6794 -0.6777
vn 0.8972 0.0163 -0.4414
vn 0.7801 0.2389 -0.5783
vn 0.9085 0.3507 -0.2273
vn 0.9201 -0.3796 -0.0969
vn 0.8565 -0.3650 -0.3649
vn 0.9131 -0.0961 -0.3962
vn 0.7028 -0.7055 -0.0911
vn 0.6660 -0.6676 -0.3328
vn 0.6664 -0.3328 -0.6672
vn 0.7030 -0.0902 -0.7054
vn 0.5764 -0.5779 -0.5777
vn 0.0938 -0.9138 -0.3951
vn 0.3629 -0.8574 -0.3649
vn 0.3760 -0.9215 -0.0969
vn 0.0885 -0.7037 -0.7049
vn 0.3311 -0.6672 -0.6672
vn 0.1023 -0.1026 -0.9894
vn 0.3842 -0.0966 -0.9182
vn 0.3639 -0.3648 -0.8570
vn 0.0956 -0.3846 -0.9181
vn 0.9283 0.3551 0.1104
vn 0.8484 0.2789 0.4499
vn 0.9269 0.0205 0.3748
vn 0.3814 0.9175 0.1125
vn 0.3318 0.7969 0.5048
vn 0.5415 0.1823 0.8207
vn 0.6884 0.0104 0.7253
vn 0.2072 0.4976 0.8423
vn -0.6332 0.6662 0.3940
vn -0.3998 0.7986 0.4499
vn -0.4030 0.9085 0.1103
vn -0.4761 0.4934 0.7279
vn -0.2522 0.5127 0.8207
vn 0.3170 0.0525 0.9470
vn 0.0908 0.2182 0.9717
vn -0.1905 0.2660 0.9450
vn 0.0935 -0.3842 0.9185
vn 0.3622 -0.3652 0.8576
vn 0.3783 -0.0970 0.9206
vn 0.0846 -0.7030 0.7062
vn 0.3279 -0.6681 0.6679
vn 0.6654 -0.3333 0.6679
vn 0.7038 -0.0912 0.7045
vn 0.5743 -0.5790 0.5787
vn 0.3739 -0.9224 0.0972
vn 0.3588 -0.8589 0.3654
vn 0.0889 -0.9134 0.3973
vn 0.7018 -0.7065 0.0914
vn 0.6639 -0.6693 0.3336
vn 0.9202 -0.0971 0.3792
vn 0.8559 -0.3658 0.3654
vn 0.9198 -0.3801 0.0971
vn -0.0746 -0.0256 -0.9969
vn -0.0677 -0.3200 -0.9450
vn -0.2655 -0.1108 -0.9577
vn -0.2770 0.1830 -0.9433
vn -0.0343 -0.6800 -0.7324
vn -0.2183 -0.5205 -0.8255
vn -0.5197 0.2133 -0.8273
vn -0.4993 0.4547 -0.7375
vn -0.5037 -0.2086 -0.8383
vn -0.3222 -0.9198 -0.2240
vn -0.2426 -0.7814 -0.5749
vn -0.0191 -0.8986 -0.4384
vn -0.8878 -0.3658 -0.2793
vn -0.6810 -0.2822 -0.6757
vn -0.6386 0.6158 -0.4615
vn -0.7203 0.3810 -0.5797
vn -0.8747 0.4261 -0.2311
vn -0.2733 0.1803 0.9449
vn -0.2675 -0.1078 0.9575
vn -0.0697 -0.3187 0.9453
vn -0.5023 0.4596 0.7324
vn -0.5216 0.2164 0.8253
vn -0.2215 -0.5165 0.8272
vn -0.0382 -0.6770 0.7350
vn -0.5061 -0.2054 0.8377
vn -0.8754 0.4281 0.2243
vn -0.7223 0.3846 0.5748
vn -0.6453 0.6256 0.4384
vn -0.8888 -0.3628 0.2799
vn -0.6838 -0.2775 0.6748
vn -0.0244 -0.8956 0.4442
vn -0.2472 -0.7765 0.5796
vn -0.3243 -0.9172 0.2314
usemtl Material
s 1
f 78/1/1 21/2/2 59/3/3 98/4/4
f 58/5/5 41/6/6 96/7/7
f 2/8/8 79/9/9 97/10/10 40/11/11
f 20/12/12 3/13/13 39/14/14 60/15/15
f 1/16/16 4/17/17 7/18/18 6/19/19
f 4/17/17 5/20/20 8/21/21 7/18/18
f 6/19/19 7/18/18 19/22/22 16/23/23
f 7/18/18 8/21/21 9/24/24 19/22/22
f 2/8/8 10/25/25 13/26/26 12/27/27
f 10/25/25 11/28/28 14/29/29 13/26/26
f 12/27/27 13/26/26 8/30/21 5/31/20
f 13/26/26 14/29/29 9/24/24 8/30/21
f 3/13/13 15/32/30 18/33/31 17/34/32
f 15/32/30 16/23/23 19/22/22 18/33/31
f 17/34/32 18/33/31 14/29/29 11/28/28
f 18/33/31 19/22/22 9/24/24 14/29/29
f 20/12/12 23/35/33 26/36/34 25/37/35
f 23/35/33 24/38/36 27/39/37 26/36/34
f 25/37/35 26/36/34 38/40/38 35/41/39
f 26/36/34 27/39/37 28/42/40 38/40/38
f 21/2/2 29/43/41 32/44/42 31/45/43
f 29/43/41 30/46/44 33/47/45 32/44/42
f 31/45/43 32/44/42 27/39/37 24/38/36
f 32/44/42 33/47/45 28/42/40 27/39/37
f 22/48/46 34/49/47 37/50/48 36/51/49
f 34/49/47 35/41/39 38/40/38 37/50/48
f 36/51/49 37/50/48 33/52/45 30/53/44
f 37/50/48 38/40/38 28/42/40 33/52/45
f 39/14/14 42/54/50 45/55/51 44/56/52
f 42/54/50 43/57/53 46/58/54 45/55/51
f 44/56/52 45/55/51 57/59/55 54/60/56
f 45/55/51 46/58/54 47/61/57 57/59/55
f 40/11/11 48/62/58 51/63/59 50/64/60
f 48/62/58 49/65/61 52/66/62 51/63/59
f 50/64/60 51/63/59 46/58/54 43/57/53
f 51/63/59 52/66/62 47/61/57 46/58/54
f 41/6/6 53/67/63 56/68/64 55/69/65
f 53/67/63 54/60/56 57/59/55 56/68/64
f 55/69/65 56/68/64 52/70/62 49/71/61
f 56/68/64 57/59/55 47/61/57 52/70/62
f 58/5/5 61/72/66 64/73/67 63/74/68
f 61/72/66 62/75/69 65/76/70 64/73/67
f 63/74/68 64/73/67 76/77/71 73/78/72
f 64/73/67 65/76/70 66/79/73 76/77/71
f 59/3/3 67/80/74 70/81/75 69/82/76
f 67/80/74 68/83/77 71/84/78 70/81/75
f 69/82/76 70/81/75 65/85/70 62/86/69
f 70/81/75 71/84/78 66/79/73 65/85/70
f 60/15/15 72/87/79 75/88/80 74/89/81
f 72/87/79 73/78/72 76/77/71 75/88/80
f 74/89/81 75/88/80 71/84/78 68/83/77
f 75/88/80 76/77/71 66/79/73 71/84/78
f 77/90/82 80/91/83 83/92/84 82/93/85
f 80/91/83 81/94/86 84/95/87 83/92/84
f 82/93/85 83/92/84 95/96/88 92/97/89
f 83/92/84 84/95/87 85/98/90 95/96/88
f 78/1/1 86/99/91 89/100/92 88/101/93
f 86/99/91 87/102/94 90/103/95 89/100/92
f 88/101/93 89/100/92 84/104/87 81/105/86
f 89/100/92 90/103/95 85/106/90 84/104/87
f 79/9/9 91/107/96 94/108/97 93/109/98
f 91/107/96 92/110/89 95/111/88 94/108/97
f 93/109/98 94/108/97 90/112/95 87/113/94
f 94/108/97 95/111/88 85/114/90 90/112/95
f 96/7/7 99/115/99 102/116/100 101/117/101
f 99/115/99 100/118/102 103/119/103 102/116/100
f 101/117/101 102/116/100 114/120/104 111/121/105
f 102/116/100 103/119/103 104/122/106 114/120/104
f 97/10/10 105/123/107 108/124/108 107/125/109
f 105/123/107 106/126/110 109/127/111 108/124/108
f 107/125/109 108/124/108 103/128/103 100/129/102
f 108/124/108 109/127/111 104/130/106 103/128/103
f 98/4/4 110/131/112 113/132/113 112/133/114
f 110/131/112 111/134/105 114/135/104 113/132/113
f 112/133/114 113/132/113 109/136/111 106/137/110
f 113/132/113 114/135/104 104/138/106 109/136/111
f 3/13/13 20/12/12 25/37/35 15/32/30
f 15/32/30 25/37/35 35/41/39 16/23/23
f 16/23/23 35/41/39 34/49/47 6/19/19
f 6/19/19 34/49/47 22/48/46 1/16/16
f 41/6/6 58/5/5 63/74/68 53/67/63
f 53/67/63 63/74/68 73/78/72 54/60/56
f 54/60/56 73/78/72 72/87/79 44/56/52
f 44/56/52 72/87/79 60/15/15 39/14/14
f 40/11/11 97/10/10 107/125/109 48/62/58
f 48/62/58 107/125/109 100/129/102 49/65/61
f 49/71/61 100/118/102 99/115/99 55/69/65
f 55/69/65 99/115/99 96/7/7 41/6/6
f 2/8/8 40/11/11 50/64/60 10/25/25
f 10/25/25 50/64/60 43/57/53 11/28/28
f 11/28/28 43/57/53 42/54/50 17/34/32
f 17/34/32 42/54/50 39/14/14 3/13/13
f 21/2/2 78/1/1 88/101/93 29/43/41
f 29/43/41 88/101/93 81/105/86 30/46/44
f 30/53/44 81/94/86 80/91/83 36/51/49
f 36/51/49 80/91/83 77/90/82 22/48/46
f 97/10/10 79/9/9 93/109/98 105/123/107
f 105/123/107 93/109/98 87/113/94 106/126/110
f 106/137/110 87/102/94 86/99/91 112/133/114
f 112/133/114 86/99/91 78/1/1 98/4/4
f 79/9/9 2/8/8 12/27/27 91/107/96
f 91/107/96 12/27/27 5/31/20 92/110/89
f 92/97/89 5/20/20 4/17/17 82/93/85
f 82/93/85 4/17/17 1/16/16 77/90/82
f 59/3/3 21/2/2 31/45/43 67/80/74
f 67/80/74 31/45/43 24/38/36 68/83/77
f 68/83/77 24/38/36 23/35/33 74/89/81
f 74/89/81 23/35/33 20/12/12 60/15/15
f 98/4/4 59/3/3 69/82/76 110/131/112
f 110/131/112 69/82/76 62/86/69 111/134/105
f 111/121/105 62/75/69 61/72/66 101/117/101
f 101/117/101 61/72/66 58/5/5 96/7/7
f 77/90/82 1/16/16 22/48/46
