# Blender v3.2.0 OBJ File: ''
# www.blender.org
mtllib brick2.mtl
o Cube
v 0.884860 0.884860 -2.000000
v 0.884860 1.000000 -1.769719
v 1.000000 0.884860 -1.769719
v 0.884860 0.928922 -1.982471
v 0.884860 0.966276 -1.932552
v 0.928922 0.884860 -1.982471
v 0.929422 0.929422 -1.962444
v 0.926992 0.960630 -1.921259
v 0.951336 0.951336 -1.902672
v 0.928922 0.991235 -1.769719
v 0.966276 0.966276 -1.769719
v 0.884860 0.991235 -1.857844
v 0.929422 0.981222 -1.858844
v 0.960630 0.960630 -1.853983
v 0.991235 0.884860 -1.857844
v 0.966276 0.884860 -1.932552
v 0.991235 0.928922 -1.769719
v 0.981222 0.929422 -1.858844
v 0.960630 0.926992 -1.921259
v 0.884860 -1.000000 -1.769719
v 0.884860 -0.884860 -2.000000
v 1.000000 -0.884860 -1.769719
v 0.884860 -0.991235 -1.857844
v 0.884860 -0.966276 -1.932552
v 0.928922 -0.991235 -1.769719
v 0.929422 -0.981222 -1.858844
v 0.926992 -0.960630 -1.921259
v 0.951336 -0.951336 -1.902672
v 0.928922 -0.884860 -1.982471
v 0.966276 -0.884860 -1.932552
v 0.884860 -0.928922 -1.982471
v 0.929422 -0.929422 -1.962444
v 0.960630 -0.926992 -1.921259
v 0.991235 -0.928922 -1.769719
v 0.966276 -0.966276 -1.769719
v 0.991235 -0.884860 -1.857844
v 0.981222 -0.929422 -1.858844
v 0.960630 -0.960630 -1.853983
v 1.000000 0.884860 1.769719
v 0.884860 1.000000 1.769719
v 0.884860 0.884860 2.000000
v 0.991235 0.928922 1.769719
v 0.966276 0.966276 1.769719
v 0.991235 0.884860 1.857844
v 0.981222 0.929422 1.858844
v 0.960630 0.960630 1.853983
v 0.951336 0.951336 1.902672
v 0.884860 0.991235 1.857844
v 0.884860 0.966276 1.932552
v 0.928922 0.991235 1.769719
v 0.929422 0.981222 1.858844
v 0.926992 0.960630 1.921259
v 0.928922 0.884860 1.982471
v 0.966276 0.884860 1.932552
v 0.884860 0.928922 1.982471
v 0.929422 0.929422 1.962444
v 0.960630 0.926992 1.921259
v 1.000000 -0.884860 1.769719
v 0.884860 -0.884860 2.000000
v 0.884860 -1.000000 1.769719
v 0.991235 -0.884860 1.857844
v 0.966276 -0.884860 1.932552
v 0.991235 -0.928922 1.769719
v 0.981222 -0.929422 1.858844
v 0.960630 -0.926992 1.921259
v 0.951336 -0.951336 1.902672
v 0.884860 -0.928922 1.982471
v 0.884860 -0.966276 1.932552
v 0.928922 -0.884860 1.982471
v 0.929422 -0.929422 1.962444
v 0.926992 -0.960630 1.921259
v 0.928922 -0.991235 1.769719
v 0.966276 -0.966276 1.769719
v 0.884860 -0.991235 1.857844
v 0.929422 -0.981222 1.858844
v 0.960630 -0.960630 1.853983
v -0.884860 0.884860 -2.000000
v -1.000000 0.884860 -1.769719
v -0.884860 1.000000 -1.769719
v -0.928922 0.884860 -1.982471
v -0.966276 0.884860 -1.932552
v -0.884860 0.928922 -1.982471
v -0.929422 0.929422 -1.962444
v -0.960630 0.926992 -1.921259
v -0.951336 0.951336 -1.902672
v -0.991235 0.928922 -1.769719
v -0.966276 0.966276 -1.769719
v -0.991235 0.884860 -1.857844
v -0.981222 0.929422 -1.858844
v -0.960630 0.960630 -1.853983
v -0.884860 0.991235 -1.857844
v -0.884860 0.966276 -1.932552
v -0.928922 0.991235 -1.769719
v -0.929422 0.981222 -1.858844
v -0.926992 0.960630 -1.921259
v -1.000000 -0.884860 -1.769719
v -0.884860 -0.884860 -2.000000
v -0.884860 -1.000000 -1.769719
v -0.991235 -0.884860 -1.857844
v -0.966276 -0.884860 -1.932552
v -0.991235 -0.928922 -1.769719
v -0.981222 -0.929422 -1.858844
v -0.960630 -0.926992 -1.921259
v -0.951336 -0.951336 -1.902672
v -0.884860 -0.928922 -1.982471
v -0.884860 -0.966276 -1.932552
v -0.928922 -0.884860 -1.982471
v -0.929422 -0.929422 -1.962444
v -0.926992 -0.960630 -1.921259
v -0.928922 -0.991235 -1.769719
v -0.966276 -0.966276 -1.769719
v -0.884860 -0.991235 -1.857844
v -0.929422 -0.981222 -1.858844
v -0.960630 -0.960630 -1.853983
v -1.000000 0.884860 1.769719
v -0.884860 0.884860 2.000000
v -0.884860 1.000000 1.769719
v -0.991235 0.884860 1.857844
v -0.966276 0.884860 1.932552
v -0.991235 0.928922 1.769719
v -0.981222 0.929422 1.858844
v -0.960630 0.926992 1.921259
v -0.951336 0.951336 1.902672
v -0.884860 0.928922 1.982471
v -0.884860 0.966276 1.932552
v -0.928922 0.884860 1.982471
v -0.929422 0.929422 1.962444
v -0.926992 0.960630 1.921259
v -0.928922 0.991235 1.769719
v -0.966276 0.966276 1.769719
v -0.884860 0.991235 1.857844
v -0.929422 0.981222 1.858844
v -0.960630 0.960630 1.853983
v -0.884860 -1.000000 1.769719
v -0.884860 -0.884860 2.000000
v -1.000000 -0.884860 1.769719
v -0.884860 -0.991235 1.857844
v -0.884860 -0.966276 1.932552
v -0.928922 -0.991235 1.769719
v -0.929422 -0.981222 1.858844
v -0.926992 -0.960630 1.921259
v -0.951336 -0.951336 1.902672
v -0.928922 -0.884860 1.982471
v -0.966276 -0.884860 1.932552
v -0.884860 -0.928922 1.982471
v -0.929422 -0.929422 1.962444
v -0.960630 -0.926992 1.921259
v -0.991235 -0.928922 1.769719
v -0.966276 -0.966276 1.769719
v -0.991235 -0.884860 1.857844
v -0.981222 -0.929422 1.858844
v -0.960630 -0.960630 1.853983
vt 0.139393 0.514393
vt 0.360607 0.514392
vt 0.360607 0.735607
vt 0.139393 0.735607
vt 0.389393 0.014393
vt 0.610607 0.014393
vt 0.610607 0.235607
vt 0.389393 0.235607
vt 0.389393 0.764393
vt 0.610607 0.764393
vt 0.610607 0.985607
vt 0.389393 0.985607
vt 0.639393 0.514393
vt 0.860607 0.514392
vt 0.860607 0.735607
vt 0.639393 0.735607
vt 0.389393 0.514393
vt 0.610607 0.514392
vt 0.610607 0.735607
vt 0.389393 0.735607
vt 0.610607 0.485607
vt 0.616115 0.485607
vt 0.616178 0.491178
vt 0.610607 0.491115
vt 0.625000 0.485607
vt 0.625000 0.490874
vt 0.615874 0.500000
vt 0.610607 0.500000
vt 0.622972 0.500000
vt 0.633885 0.514393
vt 0.633822 0.508822
vt 0.639392 0.508885
vt 0.625000 0.514393
vt 0.625000 0.509126
vt 0.634126 0.500000
vt 0.639392 0.500000
vt 0.610607 0.508885
vt 0.616178 0.508822
vt 0.616115 0.514393
vt 0.360607 0.508885
vt 0.366178 0.508822
vt 0.366115 0.514393
vt 0.360607 0.500000
vt 0.365874 0.500000
vt 0.375000 0.509126
vt 0.375000 0.514393
vt 0.375000 0.502028
vt 0.389393 0.485607
vt 0.389393 0.491115
vt 0.383822 0.491178
vt 0.383885 0.485607
vt 0.389393 0.500000
vt 0.384126 0.500000
vt 0.375000 0.490874
vt 0.375000 0.485607
vt 0.383885 0.514393
vt 0.383822 0.508822
vt 0.389393 0.508885
vt 0.616115 0.735607
vt 0.616178 0.741178
vt 0.610607 0.741115
vt 0.625000 0.735607
vt 0.625000 0.740874
vt 0.615874 0.750000
vt 0.610607 0.750000
vt 0.625000 0.747972
vt 0.639393 0.741115
vt 0.633822 0.741178
vt 0.633885 0.735608
vt 0.639392 0.750000
vt 0.634126 0.750000
vt 0.610607 0.758885
vt 0.616178 0.758822
vt 0.616115 0.764393
vt 0.625000 0.759126
vt 0.625000 0.764393
vt 0.389393 0.741115
vt 0.383822 0.741178
vt 0.383885 0.735608
vt 0.389393 0.750000
vt 0.384126 0.750000
vt 0.375000 0.740874
vt 0.375000 0.735607
vt 0.377028 0.750000
vt 0.383885 0.764393
vt 0.383822 0.758822
vt 0.389393 0.758885
vt 0.375000 0.764393
vt 0.375000 0.759126
vt 0.366115 0.735607
vt 0.366178 0.741178
vt 0.360607 0.741115
vt 0.365874 0.750000
vt 0.360607 0.750000
vt 0.610607 0.264393
vt 0.610607 0.258885
vt 0.616178 0.258822
vt 0.616115 0.264393
vt 0.610607 0.250000
vt 0.615874 0.250000
vt 0.625000 0.259126
vt 0.625000 0.264393
vt 0.618917 0.250000
vt 0.616115 0.235607
vt 0.616178 0.241178
vt 0.610607 0.241115
vt 0.625000 0.235607
vt 0.625000 0.240874
vt 0.625000 0.243917
vt 0.860607 0.508885
vt 0.866178 0.508822
vt 0.866115 0.514393
vt 0.860608 0.500000
vt 0.865874 0.500000
vt 0.875000 0.509126
vt 0.875000 0.514393
vt 0.868917 0.500000
vt 0.389393 0.241115
vt 0.383822 0.241178
vt 0.383885 0.235607
vt 0.389393 0.250000
vt 0.384126 0.250000
vt 0.375000 0.240874
vt 0.375000 0.235607
vt 0.381083 0.250000
vt 0.389393 0.264393
vt 0.383885 0.264393
vt 0.383822 0.258822
vt 0.389393 0.258885
vt 0.375000 0.264393
vt 0.375000 0.259126
vt 0.375000 0.256083
vt 0.133885 0.514393
vt 0.133822 0.508822
vt 0.139393 0.508885
vt 0.125000 0.514393
vt 0.125000 0.509126
vt 0.134126 0.500000
vt 0.139393 0.500000
vt 0.125000 0.506083
vt 0.610607 0.008885
vt 0.616178 0.008822
vt 0.616115 0.014393
vt 0.610607 0.000000
vt 0.615874 0.000000
vt 0.625000 0.009126
vt 0.625000 0.014393
vt 0.618917 0.000000
vt 0.616115 0.985608
vt 0.616178 0.991178
vt 0.610607 0.991115
vt 0.625000 0.985607
vt 0.625000 0.990874
vt 0.615874 1.000000
vt 0.610607 1.000000
vt 0.625000 0.993917
vt 0.866115 0.735607
vt 0.866178 0.741178
vt 0.860608 0.741115
vt 0.875000 0.735607
vt 0.875000 0.740874
vt 0.865874 0.750000
vt 0.860608 0.750000
vt 0.875000 0.743917
vt 0.139393 0.741115
vt 0.133822 0.741178
vt 0.133885 0.735608
vt 0.139393 0.750000
vt 0.134126 0.750000
vt 0.125000 0.740874
vt 0.125000 0.735607
vt 0.131083 0.750000
vt 0.389393 0.991115
vt 0.383822 0.991178
vt 0.383885 0.985608
vt 0.389393 1.000000
vt 0.384126 1.000000
vt 0.375000 0.990874
vt 0.375000 0.985607
vt 0.381083 1.000000
vt 0.383885 0.014393
vt 0.383822 0.008822
vt 0.389393 0.008885
vt 0.375000 0.014393
vt 0.375000 0.009126
vt 0.384126 0.000000
vt 0.389393 0.000000
vt 0.375000 0.006083
vn 0.0000 -1.0000 0.0000
vn -1.0000 0.0000 0.0000
vn 0.0000 0.0000 1.0000
vn 0.0000 1.0000 0.0000
vn 1.0000 0.0000 0.0000
vn 0.3620 0.3620 -0.8590
vn 0.2546 0.7759 -0.5772
vn 0.7759 0.2546 -0.5772
vn 0.6277 0.6277 -0.4603
vn 0.2051 0.9734 -0.1025
vn 0.5556 0.8265 -0.0911
vn 0.2046 0.9278 -0.3118
vn 0.5423 0.7952 -0.2711
vn 0.9734 0.2051 -0.1025
vn 0.9278 0.2046 -0.3118
vn 0.8265 0.5556 -0.0911
vn 0.7953 0.5423 -0.2711
vn 0.2051 -0.9734 -0.1025
vn 0.2046 -0.9278 -0.3118
vn 0.5556 -0.8265 -0.0911
vn 0.5423 -0.7953 -0.2711
vn 0.3620 -0.3620 -0.8590
vn 0.7759 -0.2546 -0.5772
vn 0.2546 -0.7759 -0.5772
vn 0.6277 -0.6277 -0.4603
vn 0.9734 -0.2051 -0.1025
vn 0.8265 -0.5556 -0.0911
vn 0.9278 -0.2046 -0.3118
vn 0.7953 -0.5423 -0.2711
vn 0.9734 0.2051 0.1025
vn 0.8265 0.5556 0.0911
vn 0.9278 0.2046 0.3118
vn 0.7953 0.5423 0.2711
vn 0.2051 0.9734 0.1025
vn 0.2046 0.9278 0.3118
vn 0.5556 0.8265 0.0911
vn 0.5423 0.7953 0.2711
vn 0.3620 0.3620 0.8590
vn 0.7759 0.2546 0.5772
vn 0.2546 0.7759 0.5772
vn 0.6277 0.6277 0.4603
vn 0.9734 -0.2051 0.1025
vn 0.9278 -0.2046 0.3118
vn 0.8265 -0.5556 0.0911
vn 0.7953 -0.5423 0.2711
vn 0.3620 -0.3620 0.8590
vn 0.2546 -0.7759 0.5772
vn 0.7759 -0.2546 0.5772
vn 0.6277 -0.6277 0.4603
vn 0.2051 -0.9734 0.1025
vn 0.5556 -0.8265 0.0911
vn 0.2046 -0.9278 0.3118
vn 0.5423 -0.7952 0.2711
vn -0.3620 0.3620 -0.8590
vn -0.7759 0.2546 -0.5772
vn -0.2546 0.7759 -0.5772
vn -0.6277 0.6277 -0.4603
vn -0.9734 0.2051 -0.1025
vn -0.8265 0.5556 -0.0911
vn -0.9278 0.2046 -0.3118
vn -0.7953 0.5423 -0.2711
vn -0.2051 0.9734 -0.1025
vn -0.2046 0.9278 -0.3118
vn -0.5556 0.8265 -0.0911
vn -0.5423 0.7953 -0.2711
vn -0.9734 -0.2051 -0.1025
vn -0.9278 -0.2046 -0.3118
vn -0.8265 -0.5556 -0.0911
vn -0.7953 -0.5423 -0.2711
vn -0.3620 -0.3620 -0.8590
vn -0.2546 -0.7759 -0.5772
vn -0.7759 -0.2546 -0.5772
vn -0.6277 -0.6277 -0.4603
vn -0.2051 -0.9734 -0.1025
vn -0.5556 -0.8265 -0.0911
vn -0.2046 -0.9278 -0.3118
vn -0.5423 -0.7952 -0.2711
vn -0.9734 0.2051 0.1025
vn -0.9278 0.2046 0.3118
vn -0.8265 0.5556 0.0911
vn -0.7953 0.5423 0.2711
vn -0.3620 0.3620 0.8590
vn -0.2546 0.7759 0.5772
vn -0.7759 0.2546 0.5772
vn -0.6277 0.6277 0.4603
vn -0.2051 0.9734 0.1025
vn -0.5556 0.8265 0.0911
vn -0.2046 0.9278 0.3118
vn -0.5423 0.7952 0.2711
vn -0.2051 -0.9734 0.1025
vn -0.2046 -0.9278 0.3118
vn -0.5556 -0.8265 0.0911
vn -0.5423 -0.7953 0.2711
vn -0.3620 -0.3620 0.8590
vn -0.7759 -0.2546 0.5772
vn -0.2546 -0.7759 0.5772
vn -0.6277 -0.6277 0.4603
vn -0.9734 -0.2051 0.1025
vn -0.8265 -0.5556 0.0911
vn -0.9278 -0.2046 0.3118
vn -0.7953 -0.5423 0.2711
vn -0.1951 -0.9808 0.0000
vn -0.5556 -0.8315 0.0000
vn -0.8315 -0.5556 0.0000
vn -0.9808 -0.1951 0.0000
vn 0.0000 -0.9951 -0.0990
vn 0.0000 -0.9485 -0.3169
vn 0.0000 -0.8007 -0.5991
vn 0.0000 -0.3696 -0.9292
vn 0.9951 0.0000 -0.0990
vn 0.9485 0.0000 -0.3169
vn 0.8007 0.0000 -0.5991
vn 0.3696 0.0000 -0.9292
vn -0.3696 0.0000 0.9292
vn -0.8007 0.0000 0.5991
vn -0.9485 0.0000 0.3169
vn -0.9951 0.0000 0.0990
vn 0.3696 0.0000 0.9292
vn 0.8007 0.0000 0.5991
vn 0.9485 0.0000 0.3169
vn 0.9951 0.0000 0.0990
vn -0.3696 0.0000 -0.9292
vn -0.8007 0.0000 -0.5991
vn -0.9485 0.0000 -0.3169
vn -0.9951 0.0000 -0.0990
vn 0.0000 0.9951 0.0990
vn 0.0000 0.9485 0.3169
vn 0.0000 0.8007 0.5991
vn 0.0000 0.3696 0.9292
vn 0.1951 0.9808 0.0000
vn 0.5556 0.8315 0.0000
vn 0.8315 0.5556 0.0000
vn 0.9808 0.1951 0.0000
vn 0.0000 -0.9951 0.0990
vn 0.0000 -0.9485 0.3169
vn 0.0000 -0.8007 0.5991
vn 0.0000 -0.3696 0.9292
vn -0.1951 0.9808 0.0000
vn -0.5556 0.8315 0.0000
vn -0.8315 0.5556 0.0000
vn -0.9808 0.1951 0.0000
vn 0.0000 0.9951 -0.0990
vn 0.0000 0.9485 -0.3169
vn 0.0000 0.8007 -0.5991
vn 0.0000 0.3696 -0.9292
vn 0.1951 -0.9808 0.0000
vn 0.5556 -0.8315 0.0000
vn 0.8315 -0.5556 0.0000
vn 0.9808 -0.1951 0.0000
vn 0.0000 0.0000 -1.0000
usemtl Material
s off
f 98/1/1 20/2/1 60/3/1 134/4/1
f 136/5/2 115/6/2 78/7/2 96/8/2
f 59/9/3 41/10/3 116/11/3 135/12/3
f 2/13/4 79/14/4 117/15/4 40/16/4
f 22/17/5 3/18/5 39/19/5 58/20/5
f 1/21/6 4/22/6 7/23/6 6/24/6
f 4/22/7 5/25/7 8/26/7 7/23/7
f 6/24/8 7/23/8 19/27/8 16/28/8
f 7/23/9 8/26/9 9/29/9 19/27/9
f 2/13/10 10/30/10 13/31/10 12/32/10
f 10/30/11 11/33/11 14/34/11 13/31/11
f 12/32/12 13/31/12 8/35/12 5/36/12
f 13/31/13 14/34/13 9/29/13 8/35/13
f 3/18/14 15/37/14 18/38/14 17/39/14
f 15/37/15 16/28/15 19/27/15 18/38/15
f 17/39/16 18/38/16 14/34/16 11/33/16
f 18/38/17 19/27/17 9/29/17 14/34/17
f 20/2/18 23/40/18 26/41/18 25/42/18
f 23/40/19 24/43/19 27/44/19 26/41/19
f 25/42/20 26/41/20 38/45/20 35/46/20
f 26/41/21 27/44/21 28/47/21 38/45/21
f 21/48/22 29/49/22 32/50/22 31/51/22
f 29/49/23 30/52/23 33/53/23 32/50/23
f 31/51/24 32/50/24 27/54/24 24/55/24
f 32/50/25 33/53/25 28/47/25 27/54/25
f 22/17/26 34/56/26 37/57/26 36/58/26
f 34/56/27 35/46/27 38/45/27 37/57/27
f 36/58/28 37/57/28 33/53/28 30/52/28
f 37/57/29 38/45/29 28/47/29 33/53/29
f 39/19/30 42/59/30 45/60/30 44/61/30
f 42/59/31 43/62/31 46/63/31 45/60/31
f 44/61/32 45/60/32 57/64/32 54/65/32
f 45/60/33 46/63/33 47/66/33 57/64/33
f 40/16/34 48/67/34 51/68/34 50/69/34
f 48/67/35 49/70/35 52/71/35 51/68/35
f 50/69/36 51/68/36 46/63/36 43/62/36
f 51/68/37 52/71/37 47/66/37 46/63/37
f 41/10/38 53/72/38 56/73/38 55/74/38
f 53/72/39 54/65/39 57/64/39 56/73/39
f 55/74/40 56/73/40 52/75/40 49/76/40
f 56/73/41 57/64/41 47/66/41 52/75/41
f 58/20/42 61/77/42 64/78/42 63/79/42
f 61/77/43 62/80/43 65/81/43 64/78/43
f 63/79/44 64/78/44 76/82/44 73/83/44
f 64/78/45 65/81/45 66/84/45 76/82/45
f 59/9/46 67/85/46 70/86/46 69/87/46
f 67/85/47 68/88/47 71/89/47 70/86/47
f 69/87/48 70/86/48 65/81/48 62/80/48
f 70/86/49 71/89/49 66/84/49 65/81/49
f 60/3/50 72/90/50 75/91/50 74/92/50
f 72/90/51 73/83/51 76/82/51 75/91/51
f 74/92/52 75/91/52 71/93/52 68/94/52
f 75/91/53 76/82/53 66/84/53 71/93/53
f 77/95/54 80/96/54 83/97/54 82/98/54
f 80/96/55 81/99/55 84/100/55 83/97/55
f 82/98/56 83/97/56 95/101/56 92/102/56
f 83/97/57 84/100/57 85/103/57 95/101/57
f 78/7/58 86/104/58 89/105/58 88/106/58
f 86/104/59 87/107/59 90/108/59 89/105/59
f 88/106/60 89/105/60 84/100/60 81/99/60
f 89/105/61 90/108/61 85/109/61 84/100/61
f 79/14/62 91/110/62 94/111/62 93/112/62
f 91/110/63 92/113/63 95/114/63 94/111/63
f 93/112/64 94/111/64 90/115/64 87/116/64
f 94/111/65 95/114/65 85/117/65 90/115/65
f 96/8/66 99/118/66 102/119/66 101/120/66
f 99/118/67 100/121/67 103/122/67 102/119/67
f 101/120/68 102/119/68 114/123/68 111/124/68
f 102/119/69 103/122/69 104/125/69 114/123/69
f 97/126/70 105/127/70 108/128/70 107/129/70
f 105/127/71 106/130/71 109/131/71 108/128/71
f 107/129/72 108/128/72 103/122/72 100/121/72
f 108/128/73 109/131/73 104/132/73 103/122/73
f 98/1/74 110/133/74 113/134/74 112/135/74
f 110/133/75 111/136/75 114/137/75 113/134/75
f 112/135/76 113/134/76 109/138/76 106/139/76
f 113/134/77 114/137/77 104/140/77 109/138/77
f 115/6/78 118/141/78 121/142/78 120/143/78
f 118/141/79 119/144/79 122/145/79 121/142/79
f 120/143/80 121/142/80 133/146/80 130/147/80
f 121/142/81 122/145/81 123/148/81 133/146/81
f 116/11/82 124/149/82 127/150/82 126/151/82
f 124/149/83 125/152/83 128/153/83 127/150/83
f 126/151/84 127/150/84 122/154/84 119/155/84
f 127/150/85 128/153/85 123/156/85 122/154/85
f 117/15/86 129/157/86 132/158/86 131/159/86
f 129/157/87 130/160/87 133/161/87 132/158/87
f 131/159/88 132/158/88 128/162/88 125/163/88
f 132/158/89 133/161/89 123/164/89 128/162/89
f 134/4/90 137/165/90 140/166/90 139/167/90
f 137/165/91 138/168/91 141/169/91 140/166/91
f 139/167/92 140/166/92 152/170/92 149/171/92
f 140/166/93 141/169/93 142/172/93 152/170/93
f 135/12/94 143/173/94 146/174/94 145/175/94
f 143/173/95 144/176/95 147/177/95 146/174/95
f 145/175/96 146/174/96 141/178/96 138/179/96
f 146/174/97 147/177/97 142/180/97 141/178/97
f 136/5/98 148/181/98 151/182/98 150/183/98
f 148/181/99 149/184/99 152/185/99 151/182/99
f 150/183/100 151/182/100 147/186/100 144/187/100
f 151/182/101 152/185/101 142/188/101 147/186/101
f 98/1/102 134/4/102 139/167/102 110/133/102
f 110/133/103 139/167/103 149/171/103 111/136/103
f 111/124/104 149/184/104 148/181/104 101/120/104
f 101/120/105 148/181/105 136/5/105 96/8/105
f 20/2/106 98/1/106 112/135/106 23/40/106
f 23/40/107 112/135/107 106/139/107 24/43/107
f 24/55/108 106/130/108 105/127/108 31/51/108
f 31/51/109 105/127/109 97/126/109 21/48/109
f 3/18/110 22/17/110 36/58/110 15/37/110
f 15/37/111 36/58/111 30/52/111 16/28/111
f 16/28/112 30/52/112 29/49/112 6/24/112
f 6/24/113 29/49/113 21/48/113 1/21/113
f 135/12/114 116/11/114 126/151/114 143/173/114
f 143/173/115 126/151/115 119/155/115 144/176/115
f 144/187/116 119/144/116 118/141/116 150/183/116
f 150/183/117 118/141/117 115/6/117 136/5/117
f 41/10/118 59/9/118 69/87/118 53/72/118
f 53/72/119 69/87/119 62/80/119 54/65/119
f 54/65/120 62/80/120 61/77/120 44/61/120
f 44/61/121 61/77/121 58/20/121 39/19/121
f 77/95/122 97/126/122 107/129/122 80/96/122
f 80/96/123 107/129/123 100/121/123 81/99/123
f 81/99/124 100/121/124 99/118/124 88/106/124
f 88/106/125 99/118/125 96/8/125 78/7/125
f 40/16/126 117/15/126 131/159/126 48/67/126
f 48/67/127 131/159/127 125/163/127 49/70/127
f 49/76/128 125/152/128 124/149/128 55/74/128
f 55/74/129 124/149/129 116/11/129 41/10/129
f 2/13/130 40/16/130 50/69/130 10/30/130
f 10/30/131 50/69/131 43/62/131 11/33/131
f 11/33/132 43/62/132 42/59/132 17/39/132
f 17/39/133 42/59/133 39/19/133 3/18/133
f 134/4/134 60/3/134 74/92/134 137/165/134
f 137/165/135 74/92/135 68/94/135 138/168/135
f 138/179/136 68/88/136 67/85/136 145/175/136
f 145/175/137 67/85/137 59/9/137 135/12/137
f 117/15/138 79/14/138 93/112/138 129/157/138
f 129/157/139 93/112/139 87/116/139 130/160/139
f 130/147/140 87/107/140 86/104/140 120/143/140
f 120/143/141 86/104/141 78/7/141 115/6/141
f 79/14/142 2/13/142 12/32/142 91/110/142
f 91/110/143 12/32/143 5/36/143 92/113/143
f 92/102/144 5/25/144 4/22/144 82/98/144
f 82/98/145 4/22/145 1/21/145 77/95/145
f 60/3/146 20/2/146 25/42/146 72/90/146
f 72/90/147 25/42/147 35/46/147 73/83/147
f 73/83/148 35/46/148 34/56/148 63/79/148
f 63/79/149 34/56/149 22/17/149 58/20/149
f 97/126/150 77/95/150 1/21/150 21/48/150
